<svg xmlns="http://www.w3.org/2000/svg">
  <defs>
    
    <symbol iewBox="0 0 25 24" fill="none" id="magnifier">
      <path d="M19 18L24 23" stroke="currentcolor" stroke-width="2" stroke-linecap="round"/>
      <circle cx="11" cy="11" r="10" stroke="currentcolor" stroke-width="2"/>
    </symbol>

    <symbol viewBox="0 0 24 20" fill="none" id="camera">
      <rect x="1" y="3" width="22" height="16" rx="2.6" stroke="currentcolor" stroke-width="2"/>
      <path d="M8 1.4C8 0.626802 8.6268 0 9.4 0H14.6C15.3732 0 16 0.626801 16 1.4V2.6C16 3.3732 15.3732 4 14.6 4H12H9.4C8.6268 4 8 3.3732 8 2.6V1.4Z" fill="currentcolor"/>
      <path d="M17 2C17 1.44772 17.4477 1 18 1V1C18.5523 1 19 1.44772 19 2V2C19 2.55228 18.5523 3 18 3V3V3C17.4477 3 17 2.55228 17 2V2Z" fill="currentcolor"/>
      <circle cx="12" cy="11" r="5" stroke="currentcolor" stroke-width="2"/>
    </symbol>

  </defs>
</svg>



