<svg xmlns="http://www.w3.org/2000/svg">
  <defs>
    
    <symbol iewBox="0 0 25 24" fill="none" id="magnifier">
    <path d="M19 18L24 23" stroke="currentcolor" stroke-width="2" stroke-linecap="round"/>
    <circle cx="11" cy="11" r="10" stroke="currentcolor" stroke-width="2"/>
    <path d="M5.22559 15L7.91113 7.22266H9.98438L12.6753 15H10.9404L8.97998 8.979H8.91553L6.94971 15H5.22559ZM11.0156 11.9438V13.2061H6.86377V11.9438H11.0156ZM13.5508 9.16699H15.1406V15H13.5508V9.16699ZM14.3457 8.39893C14.1882 8.39893 14.0431 8.36312 13.9106 8.2915C13.7782 8.21989 13.6725 8.12142 13.5938 7.99609C13.515 7.87077 13.4756 7.73649 13.4756 7.59326C13.4756 7.44645 13.515 7.31217 13.5938 7.19043C13.6725 7.0651 13.7782 6.96663 13.9106 6.89502C14.0431 6.8234 14.1882 6.7876 14.3457 6.7876C14.5033 6.7876 14.6483 6.8234 14.7808 6.89502C14.9132 6.96663 15.0171 7.0651 15.0923 7.19043C15.1711 7.31217 15.2104 7.44645 15.2104 7.59326C15.2104 7.73649 15.1711 7.87077 15.0923 7.99609C15.0171 8.12142 14.9132 8.21989 14.7808 8.2915C14.6483 8.36312 14.5033 8.39893 14.3457 8.39893Z" fill="currentcolor"/>
    </symbol>

    <symbol viewBox="0 0 24 20" fill="none" id="camera">
      <rect x="1" y="3" width="22" height="16" rx="2.6" stroke="currentcolor" stroke-width="2"/>
      <path d="M8 1.4C8 0.626802 8.6268 0 9.4 0H14.6C15.3732 0 16 0.626801 16 1.4V2.6C16 3.3732 15.3732 4 14.6 4H12H9.4C8.6268 4 8 3.3732 8 2.6V1.4Z" fill="currentcolor"/>
      <path d="M17 2C17 1.44772 17.4477 1 18 1V1C18.5523 1 19 1.44772 19 2V2C19 2.55228 18.5523 3 18 3V3V3C17.4477 3 17 2.55228 17 2V2Z" fill="currentcolor"/>
      <circle cx="12" cy="11" r="5" stroke="currentcolor" stroke-width="2"/>
    </symbol>

  </defs>
</svg>